<?xml version="1.0" encoding="utf-8"?>
<!-- Generator: Adobe Illustrator 22.0.0, SVG Export Plug-In . SVG Version: 6.00 Build 0)  -->
<svg version="1.1" id="Layer_1" xmlns="http://www.w3.org/2000/svg" xmlns:xlink="http://www.w3.org/1999/xlink" x="0px" y="0px"
	 viewBox="0 0 1280 800" style="enable-background:new 0 0 1280 800;" xml:space="preserve">
<style type="text/css">
	.st0{fill:#390D0A;}
	.st1{fill:none;stroke:#390D0A;stroke-width:6;stroke-miterlimit:10;}
</style>
<g>
	<path class="st0" d="M596.8,388.7v56.7c0,1.1,0.6,2.4,1.9,4.1h-10.1c1-2.6,1.4-4.2,1.2-4.8l-9.4-41v41.8c0,1.1,0.6,2.5,1.8,4.1H572
		c1.3-1.6,1.9-2.9,1.9-4.1v-56.7c0-1.1-0.6-2.5-1.9-4.1h10.9c-0.1,1.4,0,2.5,0.2,3.2l7.3,31.8v-31c0-1.1-0.6-2.5-1.9-4.1h10.1
		C597.4,386.2,596.8,387.5,596.8,388.7z"/>
	<path class="st0" d="M612.3,388.7v29.4l10-11.7v-17.7c0-1.1-0.6-2.4-1.9-4.1h10.2c-1.3,1.6-1.9,3-1.9,4.1v56.7c0,1,0.6,2.4,1.9,4.1
		h-10.2c1.3-1.6,1.9-2.9,1.9-4.1v-30c-3.6,3.1-6.9,6.2-10,9.2v20.8c0,1.1,0.6,2.5,1.8,4.1H604c1.3-1.6,1.9-2.9,1.9-4.1v-14.3
		c-1.3,1.5-2,2.9-2.2,4.1c-0.3,1.8-0.2,3.3,0.1,4.6c0.2,0.8,0.1,1.3-0.3,1.4c-0.5,0.1-0.9-0.6-1.1-2.3c-0.5-3.1-0.5-5.4-0.1-7
		c0.5-2.2,1.7-4.4,3.6-6.6v-36.7c0-1.1-0.6-2.4-1.9-4.1h10.1C612.9,386.3,612.3,387.6,612.3,388.7z"/>
	<path class="st0" d="M644.3,434.3l-1.6,10.6c-0.2,1.1,0.2,2.6,1.2,4.5h-9.7c0.6-0.9,1.3-2.4,2.1-4.4l8.8-56.3
		c0.1-1.1,0-2.4-0.5-4.1h12.1c-0.5,1.6-0.7,3-0.5,4.1L665,445c0.1,1.1,0.8,2.5,2,4.4h-9.6c0.9-2,1.3-3.5,1.1-4.5l-1.6-10.6H644.3z
		 M642,375.7l3.4-4.1l7.6,8.2l-1.6,1.9L642,375.7z M650.6,394.2l-5.5,34.5H656L650.6,394.2z"/>
	<path class="st0" d="M714.3,384.6l-10.7,28h10.3c-1.3,1.6-1.9,3-1.9,4.1v29.6c0,2.1-1.1,3.2-3.2,3.2H692c-2.2,0-3.3-1.1-3.3-3.2
		v-58.4c0-2.2,1.1-3.2,3.3-3.2h22.3V384.6z M704.8,390.6h-8.6c-0.7,0-1.1,0.4-1.1,1.1v50.6c0,0.7,0.4,1.1,1.1,1.1h8.3
		c0.7,0,1.1-0.4,1.1-1.1v-25c0-2.1-0.9-3.2-2.6-3.2c-2.3,6.1-3.5,9.7-3.7,10.7c-0.1,0.3-0.1,0.6-0.1,0.9c0,0.7,0.5,1,1.5,0.8
		c1.7-0.1,2.6,0.8,2.6,2.9c0,1.9-0.9,2.8-2.7,2.8c-2.4,0-3.7-1.8-3.7-5.3c0-1.8,0.3-3.7,0.9-5.5l8.7-27c0.2-0.5,0.3-0.9,0.3-1.4
		C706.8,391.4,706.2,390.6,704.8,390.6z"/>
	<path class="st0" d="M736.4,384h4.9l10.9,11.4h-4.6l-8.7-6l-8.6,6h-4.6L736.4,384z M748.5,372.3v4.1c-1.8,2.1-3.5,3.1-5.1,3.1
		c-1,0-2.4-0.5-4.1-1.5c-1.7-1-3.1-1.5-4.1-1.5c-1.5,0-3.2,1.1-5.3,3.4v-4.1c1.9-2.1,3.7-3.1,5.3-3.1c1.1,0,2.6,0.5,4.3,1.5
		s3,1.5,3.8,1.5C744.8,375.7,746.5,374.6,748.5,372.3z"/>
</g>
<g>
	<path class="st1" d="M753.3,403.8v27.5c0,8.6-5.7,15.7-12.7,15.7h-4c-7,0-12.7-7-12.7-15.7v-27.5H753.3z"/>
	<ellipse class="st0" cx="739.1" cy="448.2" rx="19.9" ry="1.4"/>
</g>
<circle class="st0" cx="779.8" cy="445.5" r="4.5"/>
<circle class="st0" cx="798" cy="445.5" r="4.5"/>
<circle class="st0" cx="815.8" cy="445.5" r="4.5"/>
</svg>
